<svg width="126" height="126" viewBox="0 0 126 126" fill="none" xmlns="http://www.w3.org/2000/svg">
<path d="M63 31.5C63 14.103 77.103 0 94.5 0H116C121.523 0 126 4.47715 126 10V63H63V31.5Z" fill="url(#paint0_linear_148_54)"/>
<path d="M63 94.5C63 111.897 48.897 126 31.5 126H10C4.47715 126 0 121.523 0 116L0 63L53 63C58.5228 63 63 67.4772 63 73L63 94.5Z" fill="url(#paint1_linear_148_54)"/>
<path d="M35 7C50.464 7 63 19.536 63 35V63H7V7H35Z" fill="url(#paint2_linear_148_54)"/>
<path d="M35 7C50.464 7 63 19.536 63 35V63H7V7H35Z" fill="#87CEEB"/>
<path d="M91 119C75.536 119 63 106.464 63 91L63 63L119 63V119H91Z" fill="url(#paint3_linear_148_54)"/>
<path d="M91 119C75.536 119 63 106.464 63 91L63 63L119 63V119H91Z" fill="#87CEEB"/>
<path d="M13 13H93C104.046 13 113 21.9543 113 33V113H33C21.9543 113 13 104.046 13 93V13Z" fill="url(#paint4_linear_148_54)"/>
<path d="M41.25 87.1665H84.75" stroke="white" stroke-width="3" stroke-linecap="round" stroke-linejoin="round"/>
<path d="M48.5 77.5002V60.5835" stroke="white" stroke-width="3" stroke-linecap="round" stroke-linejoin="round"/>
<path d="M58.1666 77.5002V60.5835" stroke="white" stroke-width="3" stroke-linecap="round" stroke-linejoin="round"/>
<path d="M67.8334 77.5002V60.5835" stroke="white" stroke-width="3" stroke-linecap="round" stroke-linejoin="round"/>
<path d="M77.5 77.5002V60.5835" stroke="white" stroke-width="3" stroke-linecap="round" stroke-linejoin="round"/>
<path d="M63 38.8335L82.3333 50.9168H43.6666L63 38.8335Z" stroke="white" stroke-width="3" stroke-linecap="round" stroke-linejoin="round"/>
<defs>
<linearGradient id="paint0_linear_148_54" x1="126" y1="1.87755e-06" x2="63" y2="63" gradientUnits="userSpaceOnUse">
<stop stop-color="#FF7F50"/>
<stop offset="0.25" stop-color="#FF7F50"/>
<stop offset="0.5" stop-color="#B45F3F"/>
</linearGradient>
<linearGradient id="paint1_linear_148_54" x1="1.87755e-06" y1="126" x2="63" y2="63" gradientUnits="userSpaceOnUse">
<stop stop-color="#E6A9EC"/>
<stop offset="0.25" stop-color="#E6A9EC"/>
<stop offset="0.5" stop-color="#B28AB5"/>
</linearGradient>
<linearGradient id="paint2_linear_148_54" x1="63" y1="7" x2="15.4252" y2="69.4213" gradientUnits="userSpaceOnUse">
<stop stop-color="#00CCCC"/>
<stop offset="0.5" stop-color="white"/>
<stop offset="1" stop-color="#FF6F61"/>
</linearGradient>
<linearGradient id="paint3_linear_148_54" x1="63" y1="119" x2="110.575" y2="56.5787" gradientUnits="userSpaceOnUse">
<stop stop-color="#00CCCC"/>
<stop offset="0.5" stop-color="white"/>
<stop offset="1" stop-color="#FF6F61"/>
</linearGradient>
<linearGradient id="paint4_linear_148_54" x1="13" y1="13" x2="113" y2="113" gradientUnits="userSpaceOnUse">
<stop stop-color="#3C3C3C"/>
<stop offset="0.5" stop-color="#212121"/>
<stop offset="1" stop-color="#3C3C3C"/>
</linearGradient>
</defs>
</svg>
