<svg width="126" height="126" viewBox="0 0 126 126" fill="none" xmlns="http://www.w3.org/2000/svg">
<path d="M63 0H126V63H63V0Z" fill="url(#paint0_linear_148_17)"/>
<path d="M63 126L10 126C4.47715 126 0 121.523 0 116L0 63L53 63C58.5228 63 63 67.4772 63 73L63 126Z" fill="url(#paint1_linear_148_17)"/>
<path d="M63 7V63H35C19.536 63 7 50.464 7 35V7H63Z" fill="url(#paint2_linear_148_17)"/>
<path d="M63 7V63H35C19.536 63 7 50.464 7 35V7H63Z" fill="#D1FF9D"/>
<path d="M91 119C75.536 119 63 106.464 63 91L63 63L119 63V119H91Z" fill="url(#paint3_linear_148_17)"/>
<path d="M91 119C75.536 119 63 106.464 63 91L63 63L119 63V119H91Z" fill="#D1FF9D"/>
<path d="M13 13H93C104.046 13 113 21.9543 113 33V113H33C21.9543 113 13 104.046 13 93V13Z" fill="url(#paint4_linear_148_17)"/>
<path d="M40.425 65.3C39.6869 65.7435 39.0758 66.37 38.651 67.119C38.2261 67.8679 38.0019 68.7139 38 69.575V77.675C38.0019 78.5361 38.2261 79.3821 38.651 80.131C39.0758 80.88 39.6869 81.5065 40.425 81.95L47.925 86.45C48.7027 86.9172 49.5928 87.164 50.5 87.164C51.4072 87.164 52.2973 86.9172 53.075 86.45L63 80.5V66.75L50.5 59.25L40.425 65.3Z" stroke="white" stroke-width="3" stroke-linecap="round" stroke-linejoin="round"/>
<path d="M50.5 74.25L38.65 67.125" stroke="white" stroke-width="3" stroke-linecap="round" stroke-linejoin="round"/>
<path d="M50.5 74.25L63 66.75" stroke="white" stroke-width="3" stroke-linecap="round" stroke-linejoin="round"/>
<path d="M50.5 74.25V87.175" stroke="white" stroke-width="3" stroke-linecap="round" stroke-linejoin="round"/>
<path d="M63 66.75V80.5L72.925 86.45C73.7027 86.9172 74.5928 87.164 75.5 87.164C76.4072 87.164 77.2973 86.9172 78.075 86.45L85.575 81.95C86.3131 81.5065 86.9242 80.88 87.349 80.131C87.7739 79.3821 87.9981 78.5361 88 77.675V69.575C87.9981 68.7139 87.7739 67.8679 87.349 67.119C86.9242 66.37 86.3131 65.7435 85.575 65.3L75.5 59.25L63 66.75Z" stroke="white" stroke-width="3" stroke-linecap="round" stroke-linejoin="round"/>
<path d="M75.5 74.25L63 66.75" stroke="white" stroke-width="3" stroke-linecap="round" stroke-linejoin="round"/>
<path d="M75.5 74.25L87.35 67.125" stroke="white" stroke-width="3" stroke-linecap="round" stroke-linejoin="round"/>
<path d="M75.5 74.25V87.175" stroke="white" stroke-width="3" stroke-linecap="round" stroke-linejoin="round"/>
<path d="M52.925 44.05C52.1869 44.4934 51.5758 45.12 51.151 45.869C50.7261 46.6179 50.5019 47.4639 50.5 48.325V59.25L63 66.75L75.5 59.25V48.325C75.4981 47.4639 75.2739 46.6179 74.849 45.869C74.4242 45.12 73.8131 44.4934 73.075 44.05L65.575 39.55C64.7973 39.0828 63.9072 38.8359 63 38.8359C62.0928 38.8359 61.2027 39.0828 60.425 39.55L52.925 44.05Z" stroke="white" stroke-width="3" stroke-linecap="round" stroke-linejoin="round"/>
<path d="M63 53L51.15 45.875" stroke="white" stroke-width="3" stroke-linecap="round" stroke-linejoin="round"/>
<path d="M63 53L74.85 45.875" stroke="white" stroke-width="3" stroke-linecap="round" stroke-linejoin="round"/>
<path d="M63 66.75V53" stroke="white" stroke-width="3" stroke-linecap="round" stroke-linejoin="round"/>
<defs>
<linearGradient id="paint0_linear_148_17" x1="126" y1="1.87755e-06" x2="63" y2="63" gradientUnits="userSpaceOnUse">
<stop stop-color="#4FC3F7"/>
<stop offset="0.25" stop-color="#4FC3F7"/>
<stop offset="0.5" stop-color="#5891AA"/>
</linearGradient>
<linearGradient id="paint1_linear_148_17" x1="1.87755e-06" y1="126" x2="63" y2="63" gradientUnits="userSpaceOnUse">
<stop stop-color="#CAEDFF"/>
<stop offset="0.25" stop-color="#CAEDFF"/>
<stop offset="0.5" stop-color="#89A3B1"/>
</linearGradient>
<linearGradient id="paint2_linear_148_17" x1="63" y1="7" x2="15.4252" y2="69.4213" gradientUnits="userSpaceOnUse">
<stop stop-color="#00CCCC"/>
<stop offset="0.5" stop-color="white"/>
<stop offset="1" stop-color="#FF6F61"/>
</linearGradient>
<linearGradient id="paint3_linear_148_17" x1="63" y1="119" x2="110.575" y2="56.5787" gradientUnits="userSpaceOnUse">
<stop stop-color="#00CCCC"/>
<stop offset="0.5" stop-color="white"/>
<stop offset="1" stop-color="#FF6F61"/>
</linearGradient>
<linearGradient id="paint4_linear_148_17" x1="13" y1="13" x2="113" y2="113" gradientUnits="userSpaceOnUse">
<stop stop-color="#3C3C3C"/>
<stop offset="0.5" stop-color="#212121"/>
<stop offset="1" stop-color="#3C3C3C"/>
</linearGradient>
</defs>
</svg>
