<svg width="126" height="126" viewBox="0 0 126 126" fill="none" xmlns="http://www.w3.org/2000/svg">
<path d="M63 10C63 4.47715 67.4772 0 73 0H94.5C111.897 0 126 14.103 126 31.5V53C126 58.5228 121.523 63 116 63H63V10Z" fill="url(#paint0_linear_148_68)"/>
<path d="M63 116C63 121.523 58.5228 126 53 126L31.5 126C14.103 126 0 111.897 0 94.5L0 73C0 67.4772 4.47715 63 10 63L63 63L63 116Z" fill="url(#paint1_linear_148_68)"/>
<path d="M63 7V63H7V7H63Z" fill="url(#paint2_linear_148_68)"/>
<path d="M63 7V63H7V7H63Z" fill="#0099FF"/>
<path d="M63 119L63 63L119 63V119H63Z" fill="url(#paint3_linear_148_68)"/>
<path d="M63 119L63 63L119 63V119H63Z" fill="#0099FF"/>
<path d="M13 13H93C104.046 13 113 21.9543 113 33V113H33C21.9543 113 13 104.046 13 93V13Z" fill="url(#paint4_linear_148_68)"/>
<path d="M67.5833 54.8752C67.5833 56.2233 67.0477 57.5163 66.0944 58.4696C65.1411 59.4229 63.8482 59.9585 62.5 59.9585H47.25L37.0833 70.1252V42.1668C37.0833 40.8186 37.6189 39.5257 38.5722 38.5724C39.5255 37.6191 40.8185 37.0835 42.1666 37.0835H62.5C63.8482 37.0835 65.1411 37.6191 66.0944 38.5724C67.0477 39.5257 67.5833 40.8186 67.5833 42.1668V54.8752Z" stroke="white" stroke-width="3" stroke-linecap="round" stroke-linejoin="round"/>
<path d="M77.75 54.875H82.8334C84.1815 54.875 85.4745 55.4106 86.4278 56.3639C87.3811 57.3172 87.9167 58.6101 87.9167 59.9583V87.9167L77.75 77.75H62.5C61.1518 77.75 59.8589 77.2144 58.9056 76.2611C57.9523 75.3078 57.4167 74.0148 57.4167 72.6667V70.125" stroke="white" stroke-width="3" stroke-linecap="round" stroke-linejoin="round"/>
<defs>
<linearGradient id="paint0_linear_148_68" x1="126" y1="1.87755e-06" x2="63" y2="63" gradientUnits="userSpaceOnUse">
<stop stop-color="#FF007F"/>
<stop offset="0.25" stop-color="#FF007F"/>
<stop offset="0.5" stop-color="#BC005D"/>
</linearGradient>
<linearGradient id="paint1_linear_148_68" x1="1.87755e-06" y1="126" x2="63" y2="63" gradientUnits="userSpaceOnUse">
<stop stop-color="#00FF7F"/>
<stop offset="0.25" stop-color="#00FF7F"/>
<stop offset="0.5" stop-color="#00994C"/>
</linearGradient>
<linearGradient id="paint2_linear_148_68" x1="63" y1="7" x2="15.4252" y2="69.4213" gradientUnits="userSpaceOnUse">
<stop stop-color="#00CCCC"/>
<stop offset="0.5" stop-color="white"/>
<stop offset="1" stop-color="#FF6F61"/>
</linearGradient>
<linearGradient id="paint3_linear_148_68" x1="63" y1="119" x2="110.575" y2="56.5787" gradientUnits="userSpaceOnUse">
<stop stop-color="#00CCCC"/>
<stop offset="0.5" stop-color="white"/>
<stop offset="1" stop-color="#FF6F61"/>
</linearGradient>
<linearGradient id="paint4_linear_148_68" x1="13" y1="13" x2="113" y2="113" gradientUnits="userSpaceOnUse">
<stop stop-color="#3C3C3C"/>
<stop offset="0.5" stop-color="#212121"/>
<stop offset="1" stop-color="#3C3C3C"/>
</linearGradient>
</defs>
</svg>
