<svg width="126" height="126" viewBox="0 0 126 126" fill="none" xmlns="http://www.w3.org/2000/svg">
<path d="M63 0H94.5C111.897 0 126 14.103 126 31.5V63H94.5C77.103 63 63 48.897 63 31.5V0Z" fill="url(#paint0_linear_148_97)"/>
<path d="M63 126L31.5 126C14.103 126 0 111.897 0 94.5L0 63L31.5 63C48.897 63 63 77.103 63 94.5L63 126Z" fill="url(#paint1_linear_148_97)"/>
<path d="M35 7C50.464 7 63 19.536 63 35V63H35C19.536 63 7 50.464 7 35V7H35Z" fill="url(#paint2_linear_148_97)"/>
<path d="M35 7C50.464 7 63 19.536 63 35V63H35C19.536 63 7 50.464 7 35V7H35Z" fill="#F05A7E"/>
<path d="M91 119C75.536 119 63 106.464 63 91L63 63H91C106.464 63 119 75.536 119 91V119H91Z" fill="url(#paint3_linear_148_97)"/>
<path d="M91 119C75.536 119 63 106.464 63 91L63 63H91C106.464 63 119 75.536 119 91V119H91Z" fill="#F05A7E"/>
<path d="M13 13H93C104.046 13 113 21.9543 113 33V113H33C21.9543 113 13 104.046 13 93V13Z" fill="url(#paint4_linear_148_97)"/>
<path d="M70.5 38H48C46.6739 38 45.4021 38.5268 44.4645 39.4645C43.5268 40.4021 43 41.6739 43 43V83C43 84.3261 43.5268 85.5979 44.4645 86.5355C45.4021 87.4732 46.6739 88 48 88H78C79.3261 88 80.5979 87.4732 81.5355 86.5355C82.4732 85.5979 83 84.3261 83 83V50.5L70.5 38Z" stroke="white" stroke-width="3" stroke-linecap="round" stroke-linejoin="round"/>
<path d="M68 38V48C68 49.3261 68.5268 50.5979 69.4645 51.5355C70.4021 52.4732 71.6739 53 73 53H83" stroke="white" stroke-width="3" stroke-linecap="round" stroke-linejoin="round"/>
<path d="M58 55.5H53" stroke="white" stroke-width="3" stroke-linecap="round" stroke-linejoin="round"/>
<path d="M73 65.5H53" stroke="white" stroke-width="3" stroke-linecap="round" stroke-linejoin="round"/>
<path d="M73 75.5H53" stroke="white" stroke-width="3" stroke-linecap="round" stroke-linejoin="round"/>
<defs>
<linearGradient id="paint0_linear_148_97" x1="126" y1="1.87755e-06" x2="63" y2="63" gradientUnits="userSpaceOnUse">
<stop stop-color="#0B8494"/>
<stop offset="0.25" stop-color="#0B8494"/>
<stop offset="0.5" stop-color="#0E6571"/>
</linearGradient>
<linearGradient id="paint1_linear_148_97" x1="1.87755e-06" y1="126" x2="63" y2="63" gradientUnits="userSpaceOnUse">
<stop stop-color="#FFBE98"/>
<stop offset="0.25" stop-color="#FFBE98"/>
<stop offset="0.5" stop-color="#BE8F73"/>
</linearGradient>
<linearGradient id="paint2_linear_148_97" x1="63" y1="7" x2="15.4252" y2="69.4213" gradientUnits="userSpaceOnUse">
<stop stop-color="#00CCCC"/>
<stop offset="0.5" stop-color="white"/>
<stop offset="1" stop-color="#FF6F61"/>
</linearGradient>
<linearGradient id="paint3_linear_148_97" x1="63" y1="119" x2="110.575" y2="56.5787" gradientUnits="userSpaceOnUse">
<stop stop-color="#00CCCC"/>
<stop offset="0.5" stop-color="white"/>
<stop offset="1" stop-color="#FF6F61"/>
</linearGradient>
<linearGradient id="paint4_linear_148_97" x1="13" y1="13" x2="113" y2="113" gradientUnits="userSpaceOnUse">
<stop stop-color="#3C3C3C"/>
<stop offset="0.5" stop-color="#212121"/>
<stop offset="1" stop-color="#3C3C3C"/>
</linearGradient>
</defs>
</svg>
